<svg width="15" height="16" viewBox="0 0 15 16" fill="none" xmlns="http://www.w3.org/2000/svg">
<path fill-rule="evenodd" clip-rule="evenodd" d="M7.11111 9.78824C6.90196 9.78824 6.72767 9.71503 6.58824 9.56863C6.4488 9.42222 6.37909 9.25142 6.37909 9.05621C6.37909 8.84706 6.4488 8.66928 6.58824 8.52288C6.72767 8.37647 6.90196 8.30327 7.11111 8.30327C7.32026 8.30327 7.49455 8.37647 7.63399 8.52288C7.77342 8.66928 7.84314 8.84706 7.84314 9.05621C7.84314 9.25142 7.77342 9.42222 7.63399 9.56863C7.49455 9.71503 7.32026 9.78824 7.11111 9.78824ZM3.76471 9.78824C3.55556 9.78824 3.38126 9.71503 3.24183 9.56863C3.1024 9.42222 3.03268 9.25142 3.03268 9.05621C3.03268 8.84706 3.1024 8.66928 3.24183 8.52288C3.38126 8.37647 3.55556 8.30327 3.76471 8.30327C3.97386 8.30327 4.14815 8.37647 4.28758 8.52288C4.42702 8.66928 4.49673 8.84706 4.49673 9.05621C4.49673 9.25142 4.42702 9.42222 4.28758 9.56863C4.14815 9.71503 3.97386 9.78824 3.76471 9.78824ZM10.4575 9.78824C10.2484 9.78824 10.0741 9.71503 9.93464 9.56863C9.79521 9.42222 9.72549 9.25142 9.72549 9.05621C9.72549 8.84706 9.79521 8.66928 9.93464 8.52288C10.0741 8.37647 10.2484 8.30327 10.4575 8.30327C10.6667 8.30327 10.841 8.37647 10.9804 8.52288C11.1198 8.66928 11.1895 8.84706 11.1895 9.05621C11.1895 9.25142 11.1198 9.42222 10.9804 9.56863C10.841 9.71503 10.6667 9.78824 10.4575 9.78824ZM7.11111 13.0719C6.90196 13.0719 6.72767 12.9987 6.58824 12.8523C6.4488 12.7059 6.37909 12.5351 6.37909 12.3399C6.37909 12.1307 6.4488 11.9529 6.58824 11.8065C6.72767 11.6601 6.90196 11.5869 7.11111 11.5869C7.32026 11.5869 7.49455 11.6601 7.63399 11.8065C7.77342 11.9529 7.84314 12.1307 7.84314 12.3399C7.84314 12.5351 7.77342 12.7059 7.63399 12.8523C7.49455 12.9987 7.32026 13.0719 7.11111 13.0719ZM3.76471 13.0719C3.55556 13.0719 3.38126 12.9987 3.24183 12.8523C3.1024 12.7059 3.03268 12.5351 3.03268 12.3399C3.03268 12.1307 3.1024 11.9529 3.24183 11.8065C3.38126 11.6601 3.55556 11.5869 3.76471 11.5869C3.97386 11.5869 4.14815 11.6601 4.28758 11.8065C4.42702 11.9529 4.49673 12.1307 4.49673 12.3399C4.49673 12.5351 4.42702 12.7059 4.28758 12.8523C4.14815 12.9987 3.97386 13.0719 3.76471 13.0719ZM10.4575 13.0719C10.2484 13.0719 10.0741 12.9987 9.93464 12.8523C9.79521 12.7059 9.72549 12.5351 9.72549 12.3399C9.72549 12.1307 9.79521 11.9529 9.93464 11.8065C10.0741 11.6601 10.2484 11.5869 10.4575 11.5869C10.6667 11.5869 10.841 11.6601 10.9804 11.8065C11.1198 11.9529 11.1895 12.1307 11.1895 12.3399C11.1895 12.5351 11.1198 12.7059 10.9804 12.8523C10.841 12.9987 10.6667 13.0719 10.4575 13.0719ZM1.21307 16C0.878431 16 0.592593 15.8815 0.355556 15.6444C0.118519 15.4074 0 15.1216 0 14.7869V2.67712C0 2.35643 0.118519 2.07407 0.355556 1.83007C0.592593 1.58606 0.878431 1.46405 1.21307 1.46405H2.76078V0H3.80654V1.46405H10.4575V0H11.4824V1.46405H13.0092C13.3438 1.46405 13.6296 1.58606 13.8667 1.83007C14.1037 2.07407 14.2222 2.35643 14.2222 2.67712V14.7869C14.2222 15.1216 14.1037 15.4074 13.8667 15.6444C13.6296 15.8815 13.3438 16 13.0092 16H1.21307ZM1.21307 15.0588H13.0092C13.0789 15.0588 13.1416 15.0309 13.1974 14.9752C13.2532 14.9194 13.281 14.8566 13.281 14.7869V6.48366H0.941176V14.7869C0.941176 14.8566 0.969063 14.9194 1.02484 14.9752C1.08061 15.0309 1.14336 15.0588 1.21307 15.0588ZM0.941176 5.54248H13.281V2.67712C13.281 2.60741 13.2532 2.54815 13.1974 2.49935C13.1416 2.45054 13.0789 2.42614 13.0092 2.42614H1.21307C1.14336 2.42614 1.08061 2.45054 1.02484 2.49935C0.969063 2.54815 0.941176 2.60741 0.941176 2.67712V5.54248ZM0.941176 5.54248V2.67712C0.941176 2.60741 0.941176 2.54815 0.941176 2.49935C0.941176 2.45054 0.941176 2.42614 0.941176 2.42614C0.941176 2.42614 0.941176 2.45054 0.941176 2.49935C0.941176 2.54815 0.941176 2.60741 0.941176 2.67712V5.54248Z" fill="white" fill-opacity="0.6"/>
</svg>
