<svg width="13" height="18" viewBox="0 0 13 18" fill="none" xmlns="http://www.w3.org/2000/svg">
<path fill-rule="evenodd" clip-rule="evenodd" d="M6.06923 13.4769C7.71538 12.1538 8.96154 10.8846 9.80769 9.66923C10.6538 8.45385 11.0769 7.3 11.0769 6.20769C11.0769 5.26923 10.9077 4.47308 10.5692 3.81923C10.2308 3.16538 9.80769 2.63077 9.3 2.21538C8.79231 1.8 8.24615 1.5 7.66154 1.31538C7.07692 1.13077 6.54615 1.03846 6.06923 1.03846C5.59231 1.03846 5.06154 1.13077 4.47692 1.31538C3.89231 1.5 3.34615 1.8 2.83846 2.21538C2.33077 2.63077 1.90769 3.16538 1.56923 3.81923C1.23077 4.47308 1.06154 5.26923 1.06154 6.20769C1.06154 7.3 1.48462 8.45385 2.33077 9.66923C3.17692 10.8846 4.42308 12.1538 6.06923 13.4769ZM6.06923 14.7923C4.02308 13.2538 2.5 11.7769 1.5 10.3615C0.5 8.94615 0 7.56154 0 6.20769C0 5.17692 0.184615 4.27692 0.553846 3.50769C0.923077 2.73846 1.39615 2.09231 1.97308 1.56923C2.55 1.04615 3.2 0.653846 3.92308 0.392308C4.64615 0.130769 5.36154 0 6.06923 0C6.77692 0 7.49231 0.130769 8.21538 0.392308C8.93846 0.653846 9.58846 1.04615 10.1654 1.56923C10.7423 2.09231 11.2154 2.73846 11.5846 3.50769C11.9538 4.27692 12.1385 5.17692 12.1385 6.20769C12.1385 7.56154 11.6385 8.94615 10.6385 10.3615C9.63846 11.7769 8.11538 13.2538 6.06923 14.7923ZM6.06923 7.5C6.46923 7.5 6.81154 7.35769 7.09615 7.07308C7.38077 6.78846 7.52308 6.44615 7.52308 6.04615C7.52308 5.64615 7.38077 5.30769 7.09615 5.03077C6.81154 4.75385 6.46923 4.61538 6.06923 4.61538C5.66923 4.61538 5.32692 4.75769 5.04231 5.04231C4.75769 5.32692 4.61538 5.66923 4.61538 6.06923C4.61538 6.46923 4.75769 6.80769 5.04231 7.08462C5.32692 7.36154 5.66923 7.5 6.06923 7.5ZM0 18V16.9615H12.1385V18H0Z" fill="white"/>
</svg>
