<svg width="36" height="30" viewBox="0 0 36 30" fill="none" xmlns="http://www.w3.org/2000/svg">
<path fill-rule="evenodd" clip-rule="evenodd" d="M16.7397 17.9017H22.543V12.0984H16.7397V17.9017Z" fill="#CCCCCC"/>
<path fill-rule="evenodd" clip-rule="evenodd" d="M19.6906 5.80328C13.2529 5.80328 8.03485 10.2148 8.03485 15.0492C8.03485 19.8836 13.2529 24.1967 19.6906 24.1967C23.0673 24.1967 26.1686 22.9731 28.2971 21.1475L33.6962 23.883C30.5132 27.5557 25.425 30 19.6906 30C10.0483 30 2.23157 23.0892 2.23157 15.0492C2.23157 7.00918 10.0483 0 19.6906 0C25.7575 0 31.1014 2.77574 34.2303 6.83607L28.7889 9.34426C26.6555 7.15279 23.4253 5.80328 19.6906 5.80328Z" fill="#FF5A00"/>
</svg>
