<svg width="16" height="18" viewBox="0 0 16 18" fill="none" xmlns="http://www.w3.org/2000/svg">
<path fill-rule="evenodd" clip-rule="evenodd" d="M4.05 15.3C3.69 15.3 3.375 15.165 3.105 14.895C2.835 14.625 2.7 14.31 2.7 13.95V1.35C2.7 0.99 2.835 0.675 3.105 0.405C3.375 0.135 3.69 0 4.05 0H13.95C14.31 0 14.625 0.135 14.895 0.405C15.165 0.675 15.3 0.99 15.3 1.35V13.95C15.3 14.31 15.165 14.625 14.895 14.895C14.625 15.165 14.31 15.3 13.95 15.3H4.05ZM4.05 13.95H13.95V1.35H4.05V13.95ZM1.35 18C0.99 18 0.675 17.865 0.405 17.595C0.135 17.325 0 17.01 0 16.65V3.0825H1.35V16.65H12.015V18H1.35ZM4.05 1.35V13.95V1.35Z" fill="white" fill-opacity="0.87"/>
</svg>
