<svg width="24" height="24" viewBox="0 0 24 24" fill="none" xmlns="http://www.w3.org/2000/svg">
<path fill-rule="evenodd" clip-rule="evenodd" d="M7.31737 19.7874H16.0479C16.1377 19.7874 16.2186 19.7515 16.2904 19.6796C16.3623 19.6078 16.3982 19.5269 16.3982 19.4371V7.41916H6.96707V19.4371C6.96707 19.5269 7.00299 19.6078 7.07485 19.6796C7.14671 19.7515 7.22754 19.7874 7.31737 19.7874ZM5 5.31737V4.07784H8.0988L9.17665 3H14.1886L15.2665 4.07784H18.3653V5.31737H5ZM7.31737 21C6.88623 21 6.51796 20.8473 6.21257 20.5419C5.90719 20.2365 5.75449 19.8683 5.75449 19.4371V6.20659H17.6108V19.4371C17.6108 19.8683 17.4581 20.2365 17.1527 20.5419C16.8473 20.8473 16.479 21 16.0479 21H7.31737ZM6.96707 19.7874H16.3982C16.3982 19.7874 16.3623 19.7874 16.2904 19.7874C16.2186 19.7874 16.1377 19.7874 16.0479 19.7874H7.31737C7.22754 19.7874 7.14671 19.7874 7.07485 19.7874C7.00299 19.7874 6.96707 19.7874 6.96707 19.7874Z" fill="white" fill-opacity="0.87"/>
</svg>
