<svg width="103" height="59" viewBox="0 0 103 59" fill="none" xmlns="http://www.w3.org/2000/svg">
<path fill-rule="evenodd" clip-rule="evenodd" d="M11.363 30.7026C10.76 33.7226 7.75299 35.6946 4.64299 35.1106C1.53399 34.5266 -0.497006 31.6046 0.105994 28.5856C0.708994 25.5656 3.71699 23.5936 6.82499 24.1776C9.93399 24.7646 11.967 27.6826 11.363 30.7026Z" fill="white" fill-opacity="0.87"/>
<path fill-rule="evenodd" clip-rule="evenodd" d="M11.363 30.7026C10.76 33.7226 7.75299 35.6946 4.64299 35.1106C1.53399 34.5266 -0.497006 31.6046 0.105994 28.5856C0.708994 25.5656 3.71699 23.5936 6.82499 24.1776C9.93399 24.7646 11.967 27.6826 11.363 30.7026Z" fill="white" fill-opacity="0.87"/>
<path fill-rule="evenodd" clip-rule="evenodd" d="M29.9396 7.15474C29.3366 10.1757 26.3276 12.1487 23.2196 11.5627C20.1096 10.9767 18.0796 8.05474 18.6816 5.03574C19.2836 2.01474 22.2916 0.0417413 25.4016 0.628741C28.5096 1.21474 30.5416 4.13574 29.9396 7.15474Z" fill="white" fill-opacity="0.87"/>
<path fill-rule="evenodd" clip-rule="evenodd" d="M29.9396 7.15474C29.3366 10.1757 26.3276 12.1487 23.2196 11.5627C20.1096 10.9767 18.0796 8.05474 18.6816 5.03574C19.2836 2.01474 22.2916 0.0417413 25.4016 0.628741C28.5096 1.21474 30.5416 4.13574 29.9396 7.15474Z" fill="white" fill-opacity="0.87"/>
<path fill-rule="evenodd" clip-rule="evenodd" d="M32.024 22.0074C32.177 23.7264 29.997 25.3204 27.153 25.5584C24.31 25.7984 21.879 24.5994 21.726 22.8804C21.571 21.1594 23.75 19.5714 26.594 19.3294C29.438 19.0894 31.87 20.2884 32.024 22.0074Z" fill="#FFFFFE"/>
<path fill-rule="evenodd" clip-rule="evenodd" d="M32.024 22.0074C32.177 23.7264 29.997 25.3204 27.153 25.5584C24.31 25.7984 21.879 24.5994 21.726 22.8804C21.571 21.1594 23.75 19.5714 26.594 19.3294C29.438 19.0894 31.87 20.2884 32.024 22.0074Z" stroke="#1C1B19"/>
<path fill-rule="evenodd" clip-rule="evenodd" d="M42.3244 27.4255C41.9364 27.3615 41.5534 27.3725 41.1914 27.4545C41.6084 25.8375 40.7884 24.1165 39.1714 23.4155C38.2674 23.0275 37.2864 23.0295 36.4304 23.3435L36.3744 21.2005C36.3594 20.5305 35.3014 19.5255 34.0704 18.5715L35.2334 14.5755C35.7634 12.7595 30.2334 6.70647 30.2334 6.70647C29.0184 4.90547 26.3904 4.10147 24.3584 4.91547C22.3274 5.73347 21.6654 7.85347 22.8794 9.65547L26.5124 15.0525C26.5124 15.0525 23.5424 27.8455 21.5504 29.7185C19.9194 31.2515 14.7524 29.4255 14.0444 29.0255C9.9554 27.5855 6.22241 26.8335 4.80641 28.1445C2.94941 29.8615 5.29741 32.9645 8.22641 35.3295L14.0794 41.6445C13.5884 49.8845 18.7264 53.5795 25.4934 55.8435C27.4374 56.4935 36.6174 64.3665 44.0244 47.7265C44.9914 42.1365 44.6044 30.6075 44.6044 30.6075C44.8784 29.1145 43.8574 27.6935 42.3244 27.4255Z" fill="#FFFFFE"/>
<path fill-rule="evenodd" clip-rule="evenodd" d="M42.3244 27.4255C41.9364 27.3615 41.5534 27.3725 41.1914 27.4545C41.6084 25.8375 40.7884 24.1165 39.1714 23.4155C38.2674 23.0275 37.2864 23.0295 36.4304 23.3435L36.3744 21.2005C36.3594 20.5305 35.3014 19.5255 34.0704 18.5715L35.2334 14.5755C35.7634 12.7595 30.2334 6.70647 30.2334 6.70647C29.0184 4.90547 26.3904 4.10147 24.3584 4.91547C22.3274 5.73347 21.6654 7.85347 22.8794 9.65547L26.5124 15.0525C26.5124 15.0525 23.5424 27.8455 21.5504 29.7185C19.9194 31.2515 14.7524 29.4255 14.0444 29.0255C9.9554 27.5855 6.22241 26.8335 4.80641 28.1445C2.94941 29.8615 5.29741 32.9645 8.22641 35.3295L14.0794 41.6445C13.5884 49.8845 18.7264 53.5795 25.4934 55.8435C27.4374 56.4935 36.6174 64.3665 44.0244 47.7265C44.9914 42.1365 44.6044 30.6075 44.6044 30.6075C44.8784 29.1145 43.8574 27.6935 42.3244 27.4255Z" stroke="#1C1B19"/>
<path fill-rule="evenodd" clip-rule="evenodd" d="M66.713 29.7421C66.11 32.7631 63.102 34.7361 59.993 34.1521C56.885 33.5661 54.852 30.6461 55.455 27.6251C56.058 24.6051 59.066 22.6351 62.174 23.2171C65.282 23.8041 67.315 26.7241 66.713 29.7421Z" fill="white" fill-opacity="0.87"/>
<path fill-rule="evenodd" clip-rule="evenodd" d="M66.713 29.7421C66.11 32.7631 63.102 34.7361 59.993 34.1521C56.885 33.5661 54.852 30.6461 55.455 27.6251C56.058 24.6051 59.066 22.6351 62.174 23.2171C65.282 23.8041 67.315 26.7241 66.713 29.7421Z" fill="white" fill-opacity="0.87"/>
<path fill-rule="evenodd" clip-rule="evenodd" d="M67.7854 20.9489C67.1824 23.9689 64.1734 25.9409 61.0654 25.3549C57.9554 24.7689 55.9234 21.8469 56.5274 18.8299C57.1294 15.8079 60.1374 13.8379 63.2454 14.4219C66.3554 15.0079 68.3864 17.9289 67.7854 20.9489Z" fill="white" fill-opacity="0.87"/>
<path fill-rule="evenodd" clip-rule="evenodd" d="M67.7854 20.9489C67.1824 23.9689 64.1734 25.9409 61.0654 25.3549C57.9554 24.7689 55.9234 21.8469 56.5274 18.8299C57.1294 15.8079 60.1374 13.8379 63.2454 14.4219C66.3554 15.0079 68.3864 17.9289 67.7854 20.9489Z" fill="white" fill-opacity="0.87"/>
<path fill-rule="evenodd" clip-rule="evenodd" d="M81.5476 28.3238C82.3546 29.5938 81.5856 31.4778 79.8286 32.5308C78.0696 33.5858 75.9906 33.4078 75.1826 32.1378C74.3756 30.8688 75.1456 28.9838 76.9026 27.9288C78.6616 26.8788 80.7396 27.0538 81.5476 28.3238Z" fill="#FFFFFE"/>
<path fill-rule="evenodd" clip-rule="evenodd" d="M81.5476 28.3238C82.3546 29.5938 81.5856 31.4778 79.8286 32.5308C78.0696 33.5858 75.9906 33.4078 75.1826 32.1378C74.3756 30.8688 75.1456 28.9838 76.9026 27.9288C78.6616 26.8788 80.7396 27.0538 81.5476 28.3238Z" stroke="#1C1B19"/>
<path fill-rule="evenodd" clip-rule="evenodd" d="M100.041 29.4454C99.5237 29.1854 98.9637 29.0994 98.4287 29.1604C99.0607 27.5724 98.4257 25.7344 96.8587 24.8654C95.9807 24.3824 94.9807 24.2974 94.0797 24.5504C93.8257 24.4084 93.4727 24.2954 93.0577 24.1934C92.6047 23.3264 91.3987 20.2424 90.3537 19.9844C89.8037 19.8474 85.6487 20.4244 83.1857 22.5064L78.8817 17.8244C78.1257 16.0884 66.4937 16.7184 66.4937 16.7184C64.3847 16.0494 61.8167 17.0194 60.7577 18.8884C59.6987 20.7574 60.5477 22.8164 62.6557 23.4844L71.5597 23.7014L73.7697 26.3204L72.1517 32.8384C67.2737 24.9124 63.4117 25.0954 61.2027 26.5644C59.0877 27.9704 60.8947 31.4004 63.3977 34.1914L69.3977 44.0724C69.6007 44.2734 70.1727 46.2464 70.3697 46.4354C71.7107 53.7344 78.2697 55.8694 84.9847 56.9334C87.0147 57.2564 97.4337 63.5064 101.837 45.8884C101.819 41.2504 101.377 37.7364 100.25 35.0374L101.256 33.1334C101.969 31.7874 101.425 30.1344 100.041 29.4454Z" fill="#FFFFFE"/>
<path fill-rule="evenodd" clip-rule="evenodd" d="M100.041 29.4454C99.5237 29.1854 98.9637 29.0994 98.4287 29.1604C99.0607 27.5724 98.4257 25.7344 96.8587 24.8654C95.9807 24.3824 94.9807 24.2974 94.0797 24.5504C93.8257 24.4084 93.4727 24.2954 93.0577 24.1934C92.6047 23.3264 91.3987 20.2424 90.3537 19.9844C89.8037 19.8474 85.6487 20.4244 83.1857 22.5064L78.8817 17.8244C78.1257 16.0884 66.4937 16.7184 66.4937 16.7184C64.3847 16.0494 61.8167 17.0194 60.7577 18.8884C59.6987 20.7574 60.5477 22.8164 62.6557 23.4844L71.5597 23.7014L73.7697 26.3204L72.1517 32.8384C67.2737 24.9124 63.4117 25.0954 61.2027 26.5644C59.0877 27.9704 60.8947 31.4004 63.3977 34.1914L69.3977 44.0724C69.6007 44.2734 70.1727 46.2464 70.3697 46.4354C71.7107 53.7344 78.2697 55.8694 84.9847 56.9334C87.0147 57.2564 97.4337 63.5064 101.837 45.8884C101.819 41.2504 101.377 37.7364 100.25 35.0374L101.256 33.1334C101.969 31.7874 101.425 30.1344 100.041 29.4454Z" stroke="#1C1B19"/>
</svg>
