<svg width="18" height="13" viewBox="0 0 18 13" fill="none" xmlns="http://www.w3.org/2000/svg">
<path fill-rule="evenodd" clip-rule="evenodd" d="M0 12.5122V10.8439C0 10.3902 0.120732 9.98415 0.362195 9.62561C0.603659 9.26707 0.936585 8.99268 1.36098 8.80244C2.3122 8.39268 3.17927 8.08537 3.9622 7.88049C4.74512 7.67561 5.62683 7.57317 6.60732 7.57317C7.57317 7.57317 8.4439 7.67561 9.21951 7.88049C9.99512 8.08537 10.8585 8.39268 11.8098 8.80244C12.2341 8.99268 12.5671 9.26707 12.8085 9.62561C13.05 9.98415 13.1707 10.3902 13.1707 10.8439V12.5122H0ZM14.6195 12.5122V10.8878C14.6195 10.0976 14.4366 9.44268 14.0707 8.92317C13.7049 8.40366 13.2293 7.97561 12.6439 7.63902C13.4195 7.7561 14.1585 7.90976 14.861 8.1C15.5634 8.29024 16.1488 8.50976 16.6171 8.75854C17.0415 8.99268 17.378 9.29268 17.6268 9.65854C17.8756 10.0244 18 10.4341 18 10.8878V12.5122H14.6195ZM6.60732 5.81707C5.75854 5.81707 5.05976 5.54268 4.51098 4.9939C3.9622 4.44512 3.6878 3.74634 3.6878 2.89756C3.6878 2.04878 3.9622 1.35366 4.51098 0.812195C5.05976 0.270732 5.75854 0 6.60732 0C7.44146 0 8.13293 0.270732 8.68171 0.812195C9.23049 1.35366 9.50488 2.04878 9.50488 2.89756C9.50488 3.74634 9.23049 4.44512 8.68171 4.9939C8.13293 5.54268 7.44146 5.81707 6.60732 5.81707ZM10.6244 5.81707C10.6244 5.68537 10.5951 5.53537 10.5366 5.36707C10.478 5.19878 10.3976 5.0122 10.2951 4.80732C10.5146 4.42683 10.6463 3.99878 10.6902 3.52317C10.7341 3.04756 10.7122 2.53902 10.6244 1.99756C10.6244 1.5878 10.5695 1.22927 10.4598 0.921951C10.35 0.614634 10.1927 0.336585 9.9878 0.0878049C10.3244 0.0585366 10.6427 0.12439 10.9427 0.285366C11.2427 0.446341 11.4366 0.651219 11.5244 0.9C12.1244 1.16341 12.5232 1.56585 12.7207 2.10732C12.9183 2.64878 12.8854 3.21951 12.622 3.81951C12.622 4.41951 12.4354 4.90244 12.0622 5.26829C11.689 5.63415 11.2098 5.81707 10.6244 5.81707ZM1.00976 11.5244H12.1829V10.8439C12.1829 10.6098 12.1171 10.3902 11.9854 10.1854C11.8537 9.98049 11.6634 9.81951 11.4146 9.70244C10.4927 9.27805 9.68049 8.98171 8.97805 8.81342C8.27561 8.64512 7.48537 8.56098 6.60732 8.56098C5.71463 8.56098 4.91707 8.64512 4.21463 8.81342C3.5122 8.98171 2.7 9.27805 1.77805 9.70244C1.52927 9.81951 1.33902 9.98049 1.20732 10.1854C1.07561 10.3902 1.00976 10.6098 1.00976 10.8439V11.5244ZM6.58537 4.82927C7.14146 4.82927 7.60244 4.64634 7.96829 4.28049C8.33415 3.91463 8.51707 3.45366 8.51707 2.89756C8.51707 2.3561 8.33415 1.90244 7.96829 1.53659C7.60244 1.17073 7.14146 0.987805 6.58537 0.987805C6.0439 0.987805 5.59024 1.17073 5.22439 1.53659C4.85854 1.90244 4.67561 2.3561 4.67561 2.89756C4.67561 3.45366 4.85854 3.91463 5.22439 4.28049C5.59024 4.64634 6.0439 4.82927 6.58537 4.82927Z" fill="white" fill-opacity="0.87"/>
</svg>
