<svg width="49" height="59" viewBox="0 0 49 59" fill="none" xmlns="http://www.w3.org/2000/svg">
<path fill-rule="evenodd" clip-rule="evenodd" d="M25.2633 9.321C25.2633 13.915 21.5373 17.641 16.9433 17.641C12.3463 17.641 8.62231 13.915 8.62231 9.321C8.62231 4.726 12.3463 1 16.9433 1C21.5373 1 25.2633 4.726 25.2633 9.321Z" stroke="white" stroke-width="2"/>
<path fill-rule="evenodd" clip-rule="evenodd" d="M47.7945 37.1758V30.2818C47.7945 28.5768 46.4145 27.1948 44.7135 27.1948C43.3745 27.1948 42.2395 28.0508 41.8145 29.2438C41.0845 28.7438 40.3085 28.2758 39.4975 27.8468V25.0128C39.4975 22.7808 37.8835 20.9718 35.8965 20.9718C33.9065 20.9718 32.2945 22.7808 32.2945 25.0128V25.3098C31.4955 25.1568 30.7025 25.0348 29.9195 24.9428V21.4608C29.9195 19.2288 28.3055 17.4208 26.3155 17.4208C24.3285 17.4208 22.7155 19.2288 22.7155 21.4608V25.0188C21.8975 25.1458 21.1035 25.3148 20.3385 25.5258V10.6308C20.3385 8.39884 18.7275 6.58984 16.7385 6.58984C14.7505 6.58984 13.1375 8.39884 13.1375 10.6308V31.5138C12.9175 33.1958 12.2675 34.1918 11.1465 34.4608C11.1355 34.4628 11.1235 34.4648 11.1105 34.4668C6.48552 32.8788 2.23452 32.0548 0.685523 33.5968C-1.30048 35.5738 1.34252 39.0088 4.60052 41.5988L14.8915 52.5278C17.5725 56.4498 21.6845 58.0168 26.4405 58.4588C26.6755 58.4898 26.8975 58.5088 27.1095 58.5138C27.9245 58.5718 28.7545 58.5998 29.5985 58.6028C31.8465 58.6088 46.2015 59.5668 47.8225 39.2358C47.9185 38.5468 47.9065 37.8578 47.7945 37.1758" fill="#FFFFFE"/>
<path fill-rule="evenodd" clip-rule="evenodd" d="M47.7945 37.1758V30.2818C47.7945 28.5768 46.4145 27.1948 44.7135 27.1948C43.3745 27.1948 42.2395 28.0508 41.8145 29.2438C41.0845 28.7438 40.3085 28.2758 39.4975 27.8468V25.0128C39.4975 22.7808 37.8835 20.9718 35.8965 20.9718C33.9065 20.9718 32.2945 22.7808 32.2945 25.0128V25.3098C31.4955 25.1568 30.7025 25.0348 29.9195 24.9428V21.4608C29.9195 19.2288 28.3055 17.4208 26.3155 17.4208C24.3285 17.4208 22.7155 19.2288 22.7155 21.4608V25.0188C21.8975 25.1458 21.1035 25.3148 20.3385 25.5258V10.6308C20.3385 8.39884 18.7275 6.58984 16.7385 6.58984C14.7505 6.58984 13.1375 8.39884 13.1375 10.6308V31.5138C12.9175 33.1958 12.2675 34.1918 11.1465 34.4608C11.1355 34.4628 11.1235 34.4648 11.1105 34.4668C6.48552 32.8788 2.23452 32.0548 0.685523 33.5968C-1.30048 35.5738 1.34252 39.0088 4.60052 41.5988L14.8915 52.5278C17.5725 56.4498 21.6845 58.0168 26.4405 58.4588C26.6755 58.4898 26.8975 58.5088 27.1095 58.5138C27.9245 58.5718 28.7545 58.5998 29.5985 58.6028C31.8465 58.6088 46.2015 59.5668 47.8225 39.2358C47.9185 38.5468 47.9065 37.8578 47.7945 37.1758Z" stroke="#1C1B19"/>
</svg>
