<svg width="24" height="24" viewBox="0 0 24 24" fill="none" xmlns="http://www.w3.org/2000/svg">
<path fill-rule="evenodd" clip-rule="evenodd" d="M12 20.2474L11.2184 19.5842C8.75526 17.3105 6.76974 15.3329 5.26184 13.6513C3.75395 11.9697 3 10.2763 3 8.57105C3 7.27632 3.43816 6.19079 4.31447 5.31447C5.19079 4.43816 6.27632 4 7.57105 4C8.29737 4 9.05132 4.18553 9.83289 4.55658C10.6145 4.92763 11.3368 5.61053 12 6.60526C12.7105 5.61053 13.4408 4.92763 14.1908 4.55658C14.9408 4.18553 15.6868 4 16.4289 4C17.7237 4 18.8092 4.43816 19.6855 5.31447C20.5618 6.19079 21 7.27632 21 8.57105C21 10.2763 20.2461 11.9697 18.7382 13.6513C17.2303 15.3329 15.2447 17.3105 12.7816 19.5842L12 20.2474Z" fill="black" fill-opacity="0.75"/>
</svg>
