<svg width="15" height="18" viewBox="0 0 15 18" fill="none" xmlns="http://www.w3.org/2000/svg">
<path fill-rule="evenodd" clip-rule="evenodd" d="M0 15.2649V14.1896H1.94026V6.96623C1.94026 5.68831 2.32987 4.55455 3.10909 3.56493C3.88831 2.57532 4.9013 1.96364 6.14805 1.72987V1.05195C6.14805 0.74026 6.25325 0.487013 6.46364 0.292208C6.67403 0.0974026 6.93506 0 7.24675 0C7.55844 0 7.81948 0.0974026 8.02987 0.292208C8.24026 0.487013 8.34545 0.74026 8.34545 1.05195V1.72987C9.59221 1.96364 10.6091 2.57532 11.3961 3.56493C12.1831 4.55455 12.5766 5.68831 12.5766 6.96623V14.1896H14.4935V15.2649H0ZM7.24675 18C6.79481 18 6.4013 17.8364 6.06623 17.5091C5.73117 17.1818 5.56364 16.7844 5.56364 16.3169H8.92987C8.92987 16.7844 8.76623 17.1818 8.43896 17.5091C8.11169 17.8364 7.71429 18 7.24675 18ZM2.99221 14.1896H11.5013V6.96623C11.5013 5.78182 11.0922 4.77273 10.274 3.93896C9.45584 3.10519 8.45455 2.68831 7.27013 2.68831C6.07013 2.68831 5.05714 3.10519 4.23117 3.93896C3.40519 4.77273 2.99221 5.78182 2.99221 6.96623V14.1896Z" fill="white" fill-opacity="0.87"/>
</svg>
