<svg width="15" height="18" viewBox="0 0 15 18" fill="none" xmlns="http://www.w3.org/2000/svg">
<path fill-rule="evenodd" clip-rule="evenodd" d="M7.13342 18C5.07266 17.4452 3.36856 16.2206 2.02114 14.3263C0.673712 12.432 0 10.3355 0 8.03699V2.66314L7.13342 0L14.2668 2.66314V8.03699C14.2668 10.3355 13.5931 12.432 12.2457 14.3263C10.8983 16.2206 9.19419 17.4452 7.13342 18ZM7.13342 16.8824C8.76618 16.3435 10.1255 15.3448 11.2114 13.8864C12.2972 12.428 12.9353 10.7952 13.1255 8.98811H7.13342V1.16513L1.07001 3.40026V8.03699C1.07001 8.21136 1.07398 8.36592 1.0819 8.50066C1.08983 8.6354 1.10964 8.79789 1.14135 8.98811H7.13342V16.8824Z" fill="white" fill-opacity="0.87"/>
</svg>
