<svg width="18" height="18" viewBox="0 0 18 18" fill="none" xmlns="http://www.w3.org/2000/svg">
<path fill-rule="evenodd" clip-rule="evenodd" d="M6.98684 18L6.56053 15.1579C6.22895 15.0474 5.87763 14.8855 5.50658 14.6724C5.13553 14.4592 4.81579 14.2342 4.54737 13.9974L1.89474 15.2053L0 11.8658L2.39211 10.0895C2.36053 9.93158 2.33684 9.75395 2.32105 9.55658C2.30526 9.35921 2.29737 9.17368 2.29737 9C2.29737 8.84211 2.30526 8.66447 2.32105 8.4671C2.33684 8.26974 2.36053 8.08421 2.39211 7.91053L0 6.13421L1.89474 2.81842L4.52368 4.00263C4.80789 3.76579 5.13158 3.54474 5.49474 3.33947C5.85789 3.13421 6.20526 2.97632 6.53684 2.86579L6.98684 0H10.7289L11.1553 2.86579C11.5026 2.99211 11.8539 3.15 12.2092 3.33947C12.5645 3.52895 12.8763 3.75 13.1447 4.00263L15.8447 2.81842L17.7158 6.13421L15.3 7.88684C15.3316 8.07632 15.3553 8.26579 15.3711 8.45526C15.3868 8.64474 15.3947 8.82632 15.3947 9C15.3947 9.15789 15.3868 9.33158 15.3711 9.52105C15.3553 9.71053 15.3316 9.9079 15.3 10.1132L17.7158 11.8658L15.8211 15.2053L13.1447 13.9974C12.8605 14.2342 12.5447 14.4592 12.1974 14.6724C11.85 14.8855 11.5026 15.0395 11.1553 15.1342L10.7289 18H6.98684ZM8.83421 11.6763C9.57632 11.6763 10.2079 11.4158 10.7289 10.8947C11.25 10.3737 11.5105 9.74211 11.5105 9C11.5105 8.25789 11.25 7.62632 10.7289 7.10526C10.2079 6.58421 9.57632 6.32368 8.83421 6.32368C8.09211 6.32368 7.46053 6.58421 6.93947 7.10526C6.41842 7.62632 6.15789 8.25789 6.15789 9C6.15789 9.74211 6.41842 10.3737 6.93947 10.8947C7.46053 11.4158 8.09211 11.6763 8.83421 11.6763ZM8.83421 10.5868C8.39211 10.5868 8.01711 10.4329 7.70921 10.125C7.40132 9.81711 7.24737 9.44211 7.24737 9C7.24737 8.55789 7.40132 8.18289 7.70921 7.875C8.01711 7.56711 8.39211 7.41316 8.83421 7.41316C9.27632 7.41316 9.65132 7.56711 9.95921 7.875C10.2671 8.18289 10.4211 8.55789 10.4211 9C10.4211 9.44211 10.2671 9.81711 9.95921 10.125C9.65132 10.4329 9.27632 10.5868 8.83421 10.5868V10.5868ZM7.83947 16.9342H9.85263L10.2079 14.2816C10.7132 14.1553 11.1829 13.9658 11.6171 13.7132C12.0513 13.4605 12.4658 13.1447 12.8605 12.7658L15.3237 13.8316L16.2711 12.15L14.0921 10.5395C14.1553 10.2553 14.2066 9.99079 14.2461 9.74605C14.2855 9.50132 14.3053 9.25263 14.3053 9C14.3053 8.73158 14.2895 8.47895 14.2579 8.24211C14.2263 8.00526 14.1711 7.75263 14.0921 7.48421L16.2947 5.85L15.3474 4.16842L12.8605 5.23421C12.5289 4.85526 12.1263 4.52368 11.6526 4.23947C11.1789 3.95526 10.6895 3.78158 10.1842 3.71842L9.87632 1.06579H7.83947L7.53158 3.71842C7.01053 3.81316 6.52895 3.98684 6.08684 4.23947C5.64474 4.49211 5.23421 4.82368 4.85526 5.23421L2.36842 4.16842L1.42105 5.85L3.6 7.46053C3.53684 7.69737 3.48553 7.94605 3.44605 8.20658C3.40658 8.46711 3.38684 8.73158 3.38684 9C3.38684 9.26842 3.40658 9.52895 3.44605 9.78158C3.48553 10.0342 3.53684 10.2868 3.6 10.5395L1.42105 12.15L2.36842 13.8316L4.83158 12.7658C5.21053 13.1605 5.625 13.4803 6.075 13.725C6.525 13.9697 7.01053 14.1553 7.53158 14.2816L7.83947 16.9342Z" fill="white" fill-opacity="0.87"/>
</svg>
