<svg width="18" height="17" viewBox="0 0 18 17" fill="none" xmlns="http://www.w3.org/2000/svg">
    <path fill-rule="evenodd" clip-rule="evenodd"
        d="M9 16.2474L8.21842 15.5842C5.75526 13.3105 3.76974 11.3329 2.26184 9.65132C0.753947 7.96974 0 6.27632 0 4.57105C0 3.27632 0.438158 2.19079 1.31447 1.31447C2.19079 0.438158 3.27632 0 4.57105 0C5.29737 0 6.05132 0.185526 6.83289 0.556579C7.61447 0.927632 8.33684 1.61053 9 2.60526C9.71053 1.61053 10.4408 0.927632 11.1908 0.556579C11.9408 0.185526 12.6868 0 13.4289 0C14.7237 0 15.8092 0.438158 16.6855 1.31447C17.5618 2.19079 18 3.27632 18 4.57105C18 6.27632 17.2461 7.96974 15.7382 9.65132C14.2303 11.3329 12.2447 13.3105 9.78158 15.5842L9 16.2474Z"
        fill="url(#paint0_linear_6_10761)" />
    <defs>
        <linearGradient id="paint0_linear_6_10761" x1="-5.36442e-07" y1="1.94356e-07"
            x2="-1.85578e-07" y2="16.2474" gradientUnits="userSpaceOnUse">
            <stop stop-color="#FF9300" />
            <stop offset="0.670978" stop-color="#FF5A00" />
            <stop offset="1" stop-color="#FF5A00" />
        </linearGradient>
    </defs>
</svg>
