<svg width="18" height="17" viewBox="0 0 18 17" fill="none" xmlns="http://www.w3.org/2000/svg">
<path fill-rule="evenodd" clip-rule="evenodd" d="M9 16.2474L8.21842 15.5842C5.75526 13.3105 3.76974 11.3329 2.26184 9.65132C0.753947 7.96974 0 6.27632 0 4.57105C0 3.27632 0.438158 2.19079 1.31447 1.31447C2.19079 0.438158 3.27632 0 4.57105 0C5.29737 0 6.05132 0.185526 6.83289 0.556579C7.61447 0.927632 8.33684 1.61053 9 2.60526C9.71053 1.61053 10.4408 0.927632 11.1908 0.556579C11.9408 0.185526 12.6868 0 13.4289 0C14.7237 0 15.8092 0.438158 16.6855 1.31447C17.5618 2.19079 18 3.27632 18 4.57105C18 6.27632 17.2461 7.96974 15.7382 9.65132C14.2303 11.3329 12.2447 13.3105 9.78158 15.5842L9 16.2474ZM9 14.8263C11.3684 12.6789 13.2829 10.8079 14.7434 9.21316C16.2039 7.61842 16.9342 6.07105 16.9342 4.57105C16.9342 3.56053 16.6026 2.72368 15.9395 2.06053C15.2763 1.39737 14.4395 1.06579 13.4289 1.06579C12.6553 1.06579 11.9289 1.29868 11.25 1.76447C10.5711 2.23026 9.97105 2.95263 9.45 3.93158H8.55C8.02895 2.95263 7.425 2.23026 6.73816 1.76447C6.05132 1.29868 5.32895 1.06579 4.57105 1.06579C3.54474 1.06579 2.70395 1.39737 2.04868 2.06053C1.39342 2.72368 1.06579 3.56053 1.06579 4.57105C1.06579 6.07105 1.79605 7.61842 3.25658 9.21316C4.71711 10.8079 6.63158 12.6789 9 14.8263Z" fill="white" fill-opacity="0.87"/>
</svg>
