<svg width="21" height="19" viewBox="0 0 21 19" fill="none" xmlns="http://www.w3.org/2000/svg">
<path d="M11.001 3.43611e-05C9.81852 -0.00324434 8.64715 0.228145 7.55474 0.680798C6.46233 1.13345 5.4706 1.79837 4.63699 2.63703L6.05099 4.05103C7.37299 2.72903 9.13099 2.00003 11.001 2.00003C12.871 2.00003 14.629 2.72903 15.951 4.05103C17.273 5.37303 18.002 7.13103 18.002 9.00103C18.002 10.871 17.273 12.629 15.951 13.951C14.629 15.273 12.871 16.002 11.001 16.002C9.13099 16.002 7.37299 15.273 6.05099 13.951L4.63699 15.365C6.33599 17.065 8.59599 18.002 11.001 18.002C13.406 18.002 15.666 17.065 17.365 15.365C19.065 13.666 20.002 11.406 20.002 9.00103C20.002 6.59604 19.065 4.33603 17.365 2.63703C16.5314 1.79837 15.5397 1.13345 14.4472 0.680798C13.3548 0.228145 12.1835 -0.00324434 11.001 3.43611e-05Z" fill="#B00020"/>
<path d="M0 9.00098L5 13.001V10.001H14V8.00098H5V5.00098L0 9.00098Z" fill="#B00020"/>
</svg>
