<svg width="29" height="62" viewBox="0 0 29 62" fill="none" xmlns="http://www.w3.org/2000/svg">
<path d="M20.8176 24.2146C21.2392 27.2189 25.1931 33.2199 25.5278 33.7119C25.9003 34.2618 26.559 33.8774 26.384 33.1484C26.1847 32.3206 25.121 25.5172 24.0921 23.6097C22.9781 18.3839 20.1447 12.1151 19.295 11.3937C18.0533 10.3394 17.1031 10.6445 16.8755 13.264C16.6496 15.8627 19.496 22.2273 20.8176 24.2146Z" fill="#BE9083"/>
<path d="M26.0263 32.6319C26.3219 32.736 27.6925 33.1895 27.9615 33.4727C28.2306 33.756 28.4245 34.676 28.4192 34.7771C28.4139 34.8782 28.3636 35.4275 28.3636 35.4275C28.3636 35.4275 27.9746 35.3974 27.9899 34.9841C28.0083 34.4939 27.4802 34.1155 27.1722 33.9919C27.0439 33.941 26.7305 33.9883 26.6897 34.174C26.6489 34.3597 27.1361 34.5725 27.2218 34.7062C27.3555 34.9078 27.236 35.1402 27.236 35.1402C27.236 35.1402 26.4886 34.7795 26.345 34.7109C26.2013 34.6423 25.4462 33.86 25.1908 33.2327C24.9353 32.6053 25.3457 32.3925 26.0263 32.6319Z" fill="#BE9083"/>
<path d="M18.3792 19.254C18.5169 19.5981 18.6594 19.9399 18.8043 20.274C18.8043 20.274 21.9919 18.2713 22.2338 17.4358C22.1675 17.2596 22.1011 17.0853 22.0345 16.9131V16.9131C20.684 18.221 18.4986 18.8324 18.4986 18.8324C18.4537 18.9725 18.4146 19.1127 18.3792 19.254Z" fill="#5F423B" fill-opacity="0.462773"/>
<path d="M10.8207 40.9462C10.7231 41.774 9.84919 44.08 9.57897 45.0456C8.95339 47.2612 6.41144 56.8791 5.64691 59.3169C4.69671 62.3473 4.22782 60.5616 4.22782 59.4352C4.22782 58.3088 2.58758 50.8367 3.60815 47.1234C4.15982 45.113 5.23833 43.1304 5.33293 39.7021L10.8207 40.9462Z" fill="#BE9083"/>
<path d="M5.31461 40.1283C7.23097 41.2186 9.30048 41.6851 10.5924 41.8844C10.648 41.6704 10.8029 41.0986 10.8207 40.946L5.33234 39.7002C5.3284 39.8453 5.32249 39.988 5.31461 40.1283Z" fill="#5F423B" fill-opacity="0.462773"/>
<path d="M3.49464 53.8839C3.77609 56.5062 4.22724 58.8412 4.22724 59.4331C4.22724 60.5619 4.69495 62.3476 5.64633 59.3148C5.95203 58.3398 6.54273 56.2141 7.18073 53.875C6.96313 53.9465 5.53635 54.3593 3.49464 53.8839Z" fill="white"/>
<path d="M9.57599 61.4727C9.57599 61.4727 9.85449 60.5585 8.94804 60.231C8.23436 59.9726 6.19323 59.5096 5.94253 58.7285C5.94253 58.7285 5.46299 59.1909 4.15211 58.8432C4.15211 58.8432 3.11321 59.8484 3.33376 61.4206L9.57599 61.4727Z" fill="#FF5A00"/>
<path d="M4.97813 58.9829C4.96571 58.8729 4.95566 57.6495 5.34413 57.4556C5.73261 57.2616 6.61836 57.4437 6.59412 57.6495C6.56987 57.8553 6.11517 58.8634 6.00283 58.8912C5.89048 58.919 4.97813 58.9829 4.97813 58.9829Z" fill="#FF5A00"/>
<rect width="6.67327" height="0.392029" rx="0.196014" transform="matrix(-1 0 0 1 9.7865 61.4277)" fill="white"/>
<path d="M13.582 41.4784C13.7002 41.7616 20.9731 39.8872 20.8264 39.2214C20.7496 38.8731 18.657 38.8791 16.7389 39.4502C14.991 39.9706 13.3874 41.0219 13.582 41.4784Z" fill="#32323C"/>
<path d="M19.5155 39.1099C19.8596 39.1844 19.8425 41.5147 19.5155 44.4634C19.1885 47.4122 18.4601 58.4432 18.9337 59.2078C19.4073 59.9723 17.1498 59.3172 17.0764 58.9169C17.0031 58.5166 13.9935 52.1372 14.5995 48.1643C15.2198 44.0992 14.266 41.3698 14.1265 40.9328C13.987 40.4959 16.9765 38.5576 19.5155 39.1099Z" fill="#BE9083"/>
<path d="M14.1241 40.9331C14.1596 41.0431 14.2465 41.2979 14.347 41.6834C16.1593 39.9368 18.3997 39.6305 19.7153 39.6222C19.6739 39.3106 19.6077 39.1285 19.5155 39.1084C16.9765 38.5579 13.9822 40.4955 14.1241 40.9331Z" fill="#5F423B" fill-opacity="0.462773"/>
<path d="M15.2494 53.7682C15.2493 53.7694 15.2493 53.7706 15.2494 53.7717C15.9903 56.4124 17.0339 58.683 17.0765 58.9159C17.1492 59.3162 19.4062 59.9714 18.9325 59.2069C18.7185 58.8604 18.7504 56.4047 18.8805 53.5488C18.8793 53.55 17.8546 54.2093 15.2494 53.7682Z" fill="white"/>
<path d="M22.8498 61.4737C22.8498 61.4737 23.1283 60.5595 22.2218 60.232C21.5082 59.9736 19.0792 59.5106 18.8284 58.7295C18.8284 58.7295 18.3483 59.1919 17.038 58.8442C17.038 58.8442 16.1641 60.1379 16.3746 61.4216L22.8498 61.4737Z" fill="#FF5A00"/>
<path d="M18.2519 58.9839C18.2395 58.8739 18.2294 57.6505 18.6179 57.4566C19.0064 57.2626 19.5048 57.4447 19.4794 57.6505C19.454 57.8563 19.0011 58.8644 18.8881 58.8922C18.7752 58.92 18.2519 58.9839 18.2519 58.9839Z" fill="#FF5A00"/>
<rect width="6.90624" height="0.392025" rx="0.196012" transform="matrix(-1 0 0 1 23.0603 61.4287)" fill="white"/>
<path d="M18.3927 27.3568C18.9337 28.8622 19.1885 29.9744 19.6616 33.9065C20.0974 37.5257 20.7903 38.4937 20.8264 39.2216C20.8264 39.2216 16.3486 38.3476 13.582 41.4785L12.6205 39.2216L11.8826 41.0238C11.8826 41.0238 7.68445 41.4785 3.60752 38.6752C3.60752 38.6752 4.88056 37.2922 5.25367 34.2405C5.64037 31.0795 6.1879 28.8941 6.86315 27.5957C7.5384 26.2972 18.2064 26.8376 18.3927 27.3568Z" fill="#FFCEB3"/>
<path d="M6.05311 40.0123L6.27425 40.0862C6.29081 40.0365 6.68815 38.8279 7.16118 35.4404C7.60347 32.2682 8.52588 27.9187 8.6394 27.3747C8.55662 27.3717 8.47798 27.3693 8.40289 27.3682C8.25448 28.0677 7.36163 32.3001 6.92822 35.4097C6.46228 38.7682 6.05725 40.0004 6.05311 40.0123Z" fill="#FF5A00"/>
<path d="M6.71301 40.2456L6.93534 40.3195C6.95189 40.2698 7.34924 39.0612 7.82227 35.6737C8.25568 32.5641 9.1503 28.1289 9.29517 27.4158C9.21475 27.4087 9.1367 27.4028 9.05865 27.3975C8.89723 28.1945 8.01858 32.5647 7.5893 35.6418C7.12278 39.0015 6.71715 40.2337 6.71301 40.2456Z" fill="#FF5A00"/>
<path d="M6.4357 28.5842C7.15412 28.1738 9.21475 27.4294 13.9244 28.3359C17.2042 28.9662 18.2473 28.2767 18.5411 27.7824C18.4944 27.6423 18.4448 27.501 18.3927 27.3567C18.2065 26.8375 7.53845 26.2971 6.86261 27.5962C6.69909 27.9159 6.55649 28.246 6.4357 28.5842Z" fill="#5F423B" fill-opacity="0.462773"/>
<path d="M9.47794 9.24512C8.40889 9.62118 6.59896 10.3136 5.96391 10.7866C5.32887 11.2596 2.32217 15.0439 2.32217 15.0439C2.32217 15.0439 3.64311 17.8123 6.66518 18.8683C6.66518 18.8683 7.93941 21.92 6.75683 27.6389C6.75683 27.6389 7.58168 26.752 13.7417 28.187C17.9677 29.1721 18.9669 27.2788 18.9409 26.9873C18.9149 26.6958 17.348 22.5455 18.4974 18.8317C18.4974 18.8317 21.6224 17.9583 22.708 16.065C22.708 16.065 20.8413 12.1625 19.9213 11.4211C19.0012 10.6796 16.5131 9.97299 15.6486 9.70632C14.7842 9.43965 9.47794 9.24512 9.47794 9.24512Z" fill="#FF5A00"/>
<path d="M9.33423 9.32285C9.33423 9.32285 12.5621 11.2067 15.3317 9.62914C15.3317 9.62914 13.7943 8.77236 13.5927 7.22437C13.5909 7.21559 13.5897 7.2067 13.5891 7.19776C13.5891 7.17943 13.585 7.16051 13.5832 7.14218C13.5826 7.13648 13.5826 7.13073 13.5832 7.12503C13.5791 7.08246 13.5761 7.03989 13.5744 6.99672C13.5744 6.94232 13.5744 6.88674 13.5744 6.82998H13.5708L10.7196 6.17188C10.7196 6.17188 10.7232 6.37114 10.6954 6.6721C10.6262 7.426 10.3578 8.81966 9.33423 9.32285Z" fill="#BE9083"/>
<path d="M10.6605 7.10197C11.37 8.75758 13.2208 8.58019 13.9646 8.3017C13.7693 7.9711 13.6421 7.60482 13.5903 7.22437C13.5886 7.21559 13.5874 7.2067 13.5868 7.19776C13.5868 7.17943 13.582 7.1611 13.5809 7.14218C13.5803 7.13648 13.5803 7.13073 13.5809 7.12503C13.5767 7.08246 13.5738 7.03989 13.572 6.99672C13.5696 6.94154 13.5696 6.88595 13.572 6.82998V6.82998L10.7196 6.17188C10.7196 6.17188 10.6883 6.80101 10.6605 7.10197Z" fill="#5F423B" fill-opacity="0.462773"/>
<path d="M10.4423 6.23776C10.4946 6.46184 10.5918 6.67302 10.7278 6.85861C10.8816 7.0697 10.9413 7.19151 11.0743 7.27902C11.4226 7.50785 13.2544 8.11924 13.9716 7.10163C14.3081 6.62446 14.5038 4.79561 14.3424 3.34577C14.1697 1.7966 10.9685 2.4683 10.4399 3.80698C10.1117 4.64483 10.3057 5.6648 10.4423 6.23776Z" fill="#BE9083"/>
<path d="M12.2351 3.26547C12.3611 3.28203 14.4306 3.7592 15.0922 2.94854C15.7539 2.13788 14.7664 1.37985 13.7849 1.47505C13.7849 1.47505 13.7139 0.683907 12.5207 0.449757C11.3175 0.213241 10.7888 0.697506 10.7841 1.14807C10.7841 1.14807 9.92379 0.80926 9.28106 1.32545C8.63833 1.84165 8.88549 2.23722 8.91269 2.76287C8.93989 3.28853 8.53604 3.15017 8.53899 3.69948C8.54254 4.28544 9.17226 4.28603 9.68313 5.43964C9.87885 5.8831 10.2242 6.07468 10.2378 5.87128C10.2514 5.66787 10.265 5.64186 10.3507 5.52715C10.4364 5.41244 10.8184 4.77917 10.8497 3.91589C10.8811 3.05261 11.1235 3.1206 12.2351 3.26547Z" fill="black"/>
<ellipse rx="0.801195" ry="0.801195" transform="matrix(-1 0 0 1 10.2968 5.26018)" fill="#BE9083"/>
<path d="M8.3775 19.0825C8.3775 19.0825 6.1649 23.6856 2.89745 24.5596C1.80534 24.8511 0.743974 23.9683 0.639316 22.0969C0.534658 20.2254 3.07069 16.207 3.07069 16.207C5.01071 18.4374 6.66513 18.8678 6.66513 18.8678L7.55916 18.4084L8.3775 19.0825Z" fill="#BE9083"/>
<path d="M8.67316 18.9538C8.97294 18.783 9.85159 17.7914 9.99114 17.4218C10.1307 17.0523 9.96157 16.0258 9.91782 15.9359C9.87406 15.846 9.61803 15.292 9.61803 15.292C9.44884 15.4568 9.38111 15.6997 9.44065 15.9282C9.55996 16.3847 9.43088 16.8702 9.10066 17.2072C9.00191 17.3071 8.50346 17.3574 8.39466 17.2072C8.28586 17.057 8.54248 16.6596 8.57205 16.5035C8.61758 16.267 8.41831 16.1032 8.41831 16.1032L7.76316 16.8619C7.65673 16.9837 7.52665 18.009 7.53138 18.6866C7.53611 19.3642 8.03693 19.3169 8.67316 18.9538Z" fill="#BE9083"/>
<path d="M2.56931 17.0508V17.0508C2.59532 17.0839 4.22491 19.1416 5.8072 19.3119L6.66516 18.8678C6.66516 18.8678 5.00955 18.438 3.07131 16.207V16.207V16.2124L3.06835 16.2171L2.57995 17.0348V17.0384L2.56931 17.0508Z" fill="#5F423B" fill-opacity="0.462773"/>
</svg>
