<svg width="36" height="29" viewBox="0 0 36 29" fill="none" xmlns="http://www.w3.org/2000/svg">
<path fill-rule="evenodd" clip-rule="evenodd" d="M2.74737 28.4211C1.98947 28.4211 1.34211 28.1526 0.805263 27.6158C0.268421 27.0789 0 26.4316 0 25.6737V2.74737C0 1.98947 0.268421 1.34211 0.805263 0.805263C1.34211 0.268421 1.98947 0 2.74737 0H33.2526C34.0105 0 34.6579 0.268421 35.1947 0.805263C35.7316 1.34211 36 1.98947 36 2.74737V25.6737C36 26.4316 35.7316 27.0789 35.1947 27.6158C34.6579 28.1526 34.0105 28.4211 33.2526 28.4211H2.74737ZM18 14.4947L2.13158 4.02632V25.6737C2.13158 25.8632 2.18684 26.0132 2.29737 26.1237C2.40789 26.2342 2.55789 26.2895 2.74737 26.2895H33.2526C33.4421 26.2895 33.5921 26.2342 33.7026 26.1237C33.8132 26.0132 33.8684 25.8632 33.8684 25.6737V4.02632L18 14.4947ZM18 12.2211L33.4421 2.13158H2.60526L18 12.2211ZM2.13158 4.02632V2.13158V4.02632V25.6737C2.13158 25.8632 2.18684 26.0132 2.29737 26.1237C2.40789 26.2342 2.55789 26.2895 2.74737 26.2895H2.13158C2.13158 26.2895 2.13158 26.2342 2.13158 26.1237C2.13158 26.0132 2.13158 25.8632 2.13158 25.6737V4.02632Z" fill="white" fill-opacity="0.87"/>
</svg>
