<svg width="18" height="14" viewBox="0 0 18 14" fill="none" xmlns="http://www.w3.org/2000/svg">
<path fill-rule="evenodd" clip-rule="evenodd" d="M18 13.9385V12.9H10.8692V13.9385H18ZM18 8.70002V7.63848H11.2846V8.70002H18ZM18 3.43848V2.40001H11.2846V3.43848H18ZM8.83846 13.9385V12.9H5.7C4.40769 12.9 3.30769 12.4385 2.4 11.5154C1.49231 10.5923 1.03846 9.47694 1.03846 8.16925C1.03846 6.83078 1.52692 5.70771 2.50385 4.80002C3.48077 3.89232 4.64615 3.43848 6 3.43848H6.46154L4.8 5.12309L5.53846 5.86155L8.42308 2.93078L5.49231 1.52588e-05L4.75385 0.738477L6.39231 2.40001H5.93077C4.3 2.38463 2.90385 2.93463 1.74231 4.05002C0.580769 5.1654 0 6.53848 0 8.16925C0 9.75386 0.553846 11.1116 1.66154 12.2423C2.76923 13.3731 4.11538 13.9385 5.7 13.9385H8.83846Z" fill="white" fill-opacity="0.87"/>
</svg>
