<?xml version="1.0" encoding="UTF-8"?>
<svg width="24px" height="24px" viewBox="0 0 24 24" version="1.1" xmlns="http://www.w3.org/2000/svg" xmlns:xlink="http://www.w3.org/1999/xlink">
    <title>Icon/Notification</title>
    <g id="Symbols" stroke="none" stroke-width="1" fill="none" fill-rule="evenodd" fill-opacity="0.75">
        <g id="Icon/Notification" fill="#000000">
            <path d="M5,18.2649351 L5,17.1896104 L6.94025974,17.1896104 L6.94025974,9.96623377 C6.94025974,8.68831169 7.32987013,7.55454545 8.10909091,6.56493506 C8.88831169,5.57532468 9.9012987,4.96363636 11.1480519,4.72987013 L11.1480519,4.05194805 C11.1480519,3.74025974 11.2532468,3.48701299 11.4636364,3.29220779 C11.674026,3.0974026 11.9350649,3 12.2467532,3 C12.5584416,3 12.8194805,3.0974026 13.0298701,3.29220779 C13.2402597,3.48701299 13.3454545,3.74025974 13.3454545,4.05194805 L13.3454545,4.72987013 C14.5922078,4.96363636 15.6090909,5.57532468 16.3961039,6.56493506 C17.1831169,7.55454545 17.5766234,8.68831169 17.5766234,9.96623377 L17.5766234,17.1896104 L19.4935065,17.1896104 L19.4935065,18.2649351 L5,18.2649351 Z M12.2467532,21 C11.7948052,21 11.4012987,20.8363636 11.0662338,20.5090909 C10.7311688,20.1818182 10.5636364,19.7844156 10.5636364,19.3168831 L13.9298701,19.3168831 C13.9298701,19.7844156 13.7662338,20.1818182 13.438961,20.5090909 C13.1116883,20.8363636 12.7142857,21 12.2467532,21 L12.2467532,21 Z M7.99220779,17.1896104 L16.5012987,17.1896104 L16.5012987,9.96623377 C16.5012987,8.78181818 16.0922078,7.77272727 15.274026,6.93896104 C14.4558442,6.10519481 13.4545455,5.68831169 12.2701299,5.68831169 C11.0701299,5.68831169 10.0571429,6.10519481 9.23116883,6.93896104 C8.40519481,7.77272727 7.99220779,8.78181818 7.99220779,9.96623377 L7.99220779,17.1896104 Z" id="Shape"></path>
        </g>
    </g>
</svg>