<?xml version="1.0" encoding="UTF-8"?>
<svg width="24px" height="24px" viewBox="0 0 24 24" version="1.1" xmlns="http://www.w3.org/2000/svg" xmlns:xlink="http://www.w3.org/1999/xlink">
    <title>Icon/Map/can't find</title>
    <g id="Symbols" stroke="none" stroke-width="1" fill="none" fill-rule="evenodd" fill-opacity="0.87">
        <g id="Icon/Map/can't-find" fill="#000000">
            <path d="M15.02133,8.23964868 L16.9184442,6.3425345 L18.8155583,8.23964868 L19.5382685,7.51693852 L17.6411543,5.61982434 L19.5382685,3.72271016 L18.8155583,3 L16.9184442,4.89711418 L15.02133,3 L14.2986198,3.72271016 L16.195734,5.61982434 L14.2986198,7.51693852 L15.02133,8.23964868 Z M11.0012547,11.7628607 C11.3927227,11.7628607 11.727729,11.6235885 12.0062735,11.3450439 C12.2848181,11.0664994 12.4240903,10.7314931 12.4240903,10.3400251 C12.4240903,9.94855709 12.2848181,9.61355082 12.0062735,9.33500627 C11.727729,9.05646173 11.3927227,8.91718946 11.0012547,8.91718946 C10.6097867,8.91718946 10.2747804,9.05646173 9.99623588,9.33500627 C9.71769134,9.61355082 9.57841907,9.94855709 9.57841907,10.3400251 C9.57841907,10.7314931 9.71769134,11.0664994 9.99623588,11.3450439 C10.2747804,11.6235885 10.6097867,11.7628607 11.0012547,11.7628607 Z M11.0012547,21 C8.65244668,18.9523212 6.89836888,17.055207 5.73902133,15.3086575 C4.57967378,13.5621079 4,11.966123 4,10.5207026 C4,8.33751568 4.70388959,6.59473024 6.11166876,5.2923463 C7.51944793,3.98996236 9.14930991,3.33877039 11.0012547,3.33877039 C11.2271016,3.33877039 11.4491844,3.35006274 11.6675031,3.37264743 C11.8858218,3.39523212 12.0928482,3.42158093 12.2885822,3.45169385 L12.2885822,4.5131744 C12.0928482,4.46800502 11.8858218,4.43036386 11.6675031,4.40025094 C11.4491844,4.37013802 11.2271016,4.35508156 11.0012547,4.35508156 C9.31493099,4.35508156 7.89585947,4.93099122 6.74404015,6.08281054 C5.59222083,7.23462986 5.01631117,8.71392723 5.01631117,10.5207026 C5.01631117,11.6649937 5.52823087,13.0313676 6.55207026,14.6198243 C7.57590966,16.2082811 9.05897114,17.8833124 11.0012547,19.6449184 C12.9736512,17.8833124 14.4642409,16.2082811 15.4730238,14.6198243 C16.4818068,13.0313676 16.9861982,11.6649937 16.9861982,10.5207026 C16.9861982,10.4303639 16.9824341,10.336261 16.9749059,10.238394 C16.9673777,10.140527 16.9560853,10.0464241 16.9410289,9.95608532 L17.9799247,9.95608532 C17.9949812,10.0464241 18.0025094,10.140527 18.0025094,10.238394 C18.0025094,10.336261 18.0025094,10.4303639 18.0025094,10.5207026 C18.0025094,11.966123 17.4228356,13.5621079 16.2634881,15.3086575 C15.1041405,17.055207 13.3500627,18.9523212 11.0012547,21 Z" id="Shape"></path>
        </g>
    </g>
</svg>