<svg width="24" height="24" viewBox="0 0 24 24" fill="none" xmlns="http://www.w3.org/2000/svg">
    <path fill-rule="evenodd" clip-rule="evenodd"
        d="M12 24C18.6274 24 24 18.6274 24 12C24 5.37258 18.6274 0 12 0C5.37258 0 0 5.37258 0 12C0 18.6274 5.37258 24 12 24ZM4.48 17.5227C5.26933 17.9973 6.20267 18.2347 7.28 18.2347C8.34667 18.2347 9.27733 17.9973 10.072 17.5227C10.8667 17.048 11.48 16.376 11.912 15.5067C12.344 14.6373 12.56 13.6107 12.56 12.4267C12.56 11.2533 12.344 10.2347 11.912 9.37067C11.48 8.50667 10.8667 7.84 10.072 7.37067C9.27733 6.90133 8.34667 6.66667 7.28 6.66667C6.20267 6.66667 5.26933 6.90133 4.48 7.37067C3.69067 7.84 3.08 8.50667 2.648 9.37067C2.216 10.2347 2 11.2587 2 12.4427C2 13.616 2.216 14.6373 2.648 15.5067C3.08 16.376 3.69067 17.048 4.48 17.5227ZM9.896 15.6507C9.272 16.4133 8.4 16.7947 7.28 16.7947C6.16 16.7947 5.288 16.4133 4.664 15.6507C4.04 14.888 3.728 13.8187 3.728 12.4427C3.728 11.0667 4.04 10 4.664 9.24267C5.288 8.48533 6.16 8.10667 7.28 8.10667C8.41067 8.10667 9.28533 8.48533 9.904 9.24267C10.5227 10 10.832 11.0667 10.832 12.4427C10.832 13.8187 10.52 14.888 9.896 15.6507ZM17.2107 18.2347C16.4747 18.2347 15.768 18.1493 15.0907 17.9787C14.4133 17.808 13.824 17.552 13.3227 17.2107C13.12 17.072 12.9973 16.904 12.9547 16.7067C12.912 16.5093 12.9307 16.328 13.0107 16.1627C13.0907 15.9973 13.2133 15.8827 13.3787 15.8187C13.544 15.7547 13.7333 15.792 13.9467 15.9307C14.4267 16.24 14.9333 16.4667 15.4667 16.6107C16 16.7547 16.5813 16.8267 17.2107 16.8267C18.1173 16.8267 18.7867 16.664 19.2187 16.3387C19.6507 16.0133 19.8667 15.5893 19.8667 15.0667C19.8667 14.64 19.712 14.3013 19.4027 14.0507C19.0933 13.8 18.576 13.6 17.8507 13.4507L16.1387 13.0987C15.1253 12.8853 14.3707 12.5333 13.8747 12.0427C13.3787 11.552 13.1307 10.8907 13.1307 10.0587C13.1307 9.38667 13.3093 8.79467 13.6667 8.28267C14.024 7.77067 14.5227 7.37333 15.1627 7.09067C15.8027 6.808 16.5387 6.66667 17.3707 6.66667C18.032 6.66667 18.6533 6.752 19.2347 6.92267C19.816 7.09333 20.336 7.35467 20.7947 7.70667C20.976 7.83467 21.0827 7.98933 21.1147 8.17067C21.1467 8.352 21.12 8.52 21.0347 8.67467C20.9493 8.82933 20.8213 8.93333 20.6507 8.98667C20.48 9.04 20.2827 8.99733 20.0587 8.85867C19.6427 8.58133 19.216 8.38133 18.7787 8.25867C18.3413 8.136 17.8667 8.07467 17.3547 8.07467C16.5653 8.07467 15.9387 8.25067 15.4747 8.60267C15.0107 8.95467 14.7787 9.424 14.7787 10.0107C14.7787 10.4587 14.9227 10.816 15.2107 11.0827C15.4987 11.3493 15.9787 11.552 16.6507 11.6907L18.3467 12.0427C19.4133 12.2667 20.208 12.6107 20.7307 13.0747C21.2533 13.5387 21.5147 14.1653 21.5147 14.9547C21.5147 15.616 21.3387 16.192 20.9867 16.6827C20.6347 17.1733 20.1387 17.5547 19.4987 17.8267C18.8587 18.0987 18.096 18.2347 17.2107 18.2347Z"
        fill="white" fill-opacity="0.87" />
</svg>
