<svg width="17" height="16" viewBox="0 0 17 16" fill="none" xmlns="http://www.w3.org/2000/svg">
<path fill-rule="evenodd" clip-rule="evenodd" d="M8.42105 7.4386C7.33567 7.4386 6.44211 7.08772 5.74035 6.38596C5.0386 5.68421 4.68772 4.79064 4.68772 3.70526C4.68772 2.61988 5.0386 1.73099 5.74035 1.0386C6.44211 0.346199 7.33567 0 8.42105 0C9.50643 0 10.4 0.346199 11.1018 1.0386C11.8035 1.73099 12.1544 2.61988 12.1544 3.70526C12.1544 4.79064 11.8035 5.68421 11.1018 6.38596C10.4 7.08772 9.50643 7.4386 8.42105 7.4386ZM0 16V13.8667C0 13.2678 0.159064 12.7439 0.477193 12.2947C0.795322 11.8456 1.20702 11.4994 1.71228 11.2561C2.90994 10.7322 4.05614 10.3392 5.15088 10.0772C6.24561 9.8152 7.33567 9.68421 8.42105 9.68421C9.50643 9.68421 10.5965 9.81988 11.6912 10.0912C12.786 10.3626 13.9228 10.7602 15.1018 11.2842C15.6257 11.5275 16.0468 11.869 16.3649 12.3088C16.683 12.7485 16.8421 13.2678 16.8421 13.8667V16H0ZM1.26316 14.7368H15.5789V13.8667C15.5789 13.586 15.4854 13.3099 15.2982 13.0386C15.1111 12.7673 14.8678 12.5567 14.5684 12.407C13.4643 11.8643 12.4211 11.4854 11.4386 11.2702C10.4561 11.055 9.45029 10.9474 8.42105 10.9474C7.39181 10.9474 6.37661 11.055 5.37544 11.2702C4.37427 11.4854 3.33099 11.8643 2.24561 12.407C1.96491 12.5567 1.73099 12.7673 1.54386 13.0386C1.35673 13.3099 1.26316 13.586 1.26316 13.8667V14.7368ZM8.42105 6.17544C9.11345 6.17544 9.69357 5.94152 10.1614 5.47368C10.6292 5.00585 10.8632 4.41637 10.8632 3.70526C10.8632 3.01287 10.6292 2.43275 10.1614 1.96491C9.69357 1.49708 9.11345 1.26316 8.42105 1.26316C7.72865 1.26316 7.14854 1.49708 6.6807 1.96491C6.21287 2.43275 5.97895 3.01287 5.97895 3.70526C5.97895 4.41637 6.21287 5.00585 6.6807 5.47368C7.14854 5.94152 7.72865 6.17544 8.42105 6.17544Z" fill="white" fill-opacity="0.6"/>
</svg>
