<?xml version="1.0" encoding="UTF-8"?>
<svg width="24px" height="24px" viewBox="0 0 24 24" version="1.1" xmlns="http://www.w3.org/2000/svg" xmlns:xlink="http://www.w3.org/1999/xlink">
    <title>Icon/Play</title>
    <g id="Symbols" stroke="none" stroke-width="1" fill="none" fill-rule="evenodd" fill-opacity="0.75">
        <g id="Icon/Play" fill="#000000">
            <path d="M9.8175,15.825 L15.825,12 L9.8175,8.175 L9.8175,15.825 Z M12,21 C10.77,21 9.6075,20.76375 8.5125,20.29125 C7.4175,19.81875 6.46125,19.17375 5.64375,18.35625 C4.82625,17.53875 4.18125,16.5825 3.70875,15.4875 C3.23625,14.3925 3,13.23 3,12 C3,10.77 3.23625,9.6075 3.70875,8.5125 C4.18125,7.4175 4.82625,6.46125 5.64375,5.64375 C6.46125,4.82625 7.4175,4.18125 8.5125,3.70875 C9.6075,3.23625 10.77,3 12,3 C13.23,3 14.3925,3.23625 15.4875,3.70875 C16.5825,4.18125 17.53875,4.82625 18.35625,5.64375 C19.17375,6.46125 19.81875,7.4175 20.29125,8.5125 C20.76375,9.6075 21,10.77 21,12 C21,13.23 20.76375,14.3925 20.29125,15.4875 C19.81875,16.5825 19.17375,17.53875 18.35625,18.35625 C17.53875,19.17375 16.5825,19.81875 15.4875,20.29125 C14.3925,20.76375 13.23,21 12,21 Z M12,19.65 C14.1,19.65 15.9,18.9 17.4,17.4 C18.9,15.9 19.65,14.1 19.65,12 C19.65,9.9 18.9,8.1 17.4,6.6 C15.9,5.1 14.1,4.35 12,4.35 C9.9,4.35 8.1,5.1 6.6,6.6 C5.1,8.1 4.35,9.9 4.35,12 C4.35,14.1 5.1,15.9 6.6,17.4 C8.1,18.9 9.9,19.65 12,19.65 Z" id="Shape"></path>
        </g>
    </g>
</svg>