<?xml version="1.0" encoding="UTF-8"?>
<svg width="556px" height="80px" viewBox="0 0 556 80" version="1.1" xmlns="http://www.w3.org/2000/svg" xmlns:xlink="http://www.w3.org/1999/xlink">
    <title>Asset/Logo/relimb-dark</title>
    <g id="Symbols" stroke="none" stroke-width="1" fill="none" fill-rule="evenodd">
        <g id="Group">
            <path d="M55.3442623,32.2622951 L0,32.2622951 L0.131147541,78.6885246 L15.6065574,78.6885246 L15.6065574,47.7377049 L46.557377,47.7377049 L62.0327869,78.6885246 L78.557377,78.6885246 C78.557377,78.6885246 62.7777049,47.7770492 62.8196721,47.7377049 C67.1868852,47.7770492 80.6819672,41.8281967 80.6557759,24.3934426 C80.6819672,1.30885246 57.7022951,1.31147541 55.3442623,1.31147541 L0,1.31147541 L0,16.7868852 L55.3442623,16.7868852 C67.415082,16.6977049 67.5567213,32.1862295 55.3442623,32.2622951 Z M86.1639344,1.31147541 L165.114754,1.31147541 L165.114754,16.7868852 L86.1639344,16.7868852 L86.1639344,1.31147541 Z M153.57377,32.2622951 L153.57377,47.7377049 L101.639344,47.7377049 L101.639344,63.2131148 L168.786885,63.2131148 L168.786885,78.6885246 L86.1639344,78.6885246 L86.1639344,32.2622951 L153.57377,32.2622951 Z M205.639344,47.7377049 L221.114754,47.7377049 L221.114754,32.2622951 L205.639344,32.2622951 L205.639344,47.7377049 Z" id="RE_._" fill="#CCCCCC"></path>
            <path d="M467.540984,17.0491803 L467.540984,1.57349914 L537.180328,1.57349914 C556.128525,1.46885246 561.285246,31.8190164 545.311475,40.1311475 C561.563279,47.2367213 556.653115,78.8380328 537.311475,78.9508197 L467.540984,78.9508197 L467.540984,32.5245902 L529.836066,32.5245902 C541.243279,32.4485246 541.287869,16.96 529.836066,17.0491803 M529.836066,48 L483.409836,48 L483.409836,63.4754098 L529.836066,63.4754098 C541.09377,63.4281967 541.398033,47.9396721 529.836066,48 Z M444.196721,17.0491803 L413.52918,79.0321311 L396.660984,79.0321311 L366.819672,17.0491803 L366.819672,78.9508197 L351.344262,78.9508197 L351.344262,1.57377049 L376.786885,1.57377049 L406.163934,63.4754098 L434.491803,1.57377049 L459.672131,1.57377049 L459.672131,78.9508197 L444.196721,78.9508197 L444.196721,17.0491803 Z M328.131148,1.57377049 L343.606557,1.57377049 L343.606557,78.9508197 L328.131148,78.9508197 L328.131148,1.57377049 Z M258.622951,1.31147541 L274.098361,1.31147541 L274.098361,63.2131148 L320.52459,63.2131148 L320.52459,78.6885246 L258.622951,78.6885246 L258.622951,1.31147541 Z M213.508197,15.4754098 C196.340984,15.4754098 182.42623,27.2393443 182.42623,40.1311475 C182.42623,53.0229508 196.340984,64.5245902 213.508197,64.5245902 C222.512787,64.5245902 230.782951,61.2616393 236.459016,56.3934426 L250.856393,63.6878689 C242.368525,73.4819672 228.8,80 213.508197,80 C187.79541,80 166.95082,61.5711475 166.95082,40.1311475 C166.95082,18.6911475 187.79541,0 213.508197,0 C229.686557,0 243.937049,7.40196721 252.280656,18.2295082 L237.770492,24.9180328 C232.081311,19.0740984 223.467541,15.4754098 213.508197,15.4754098 Z" id="CLIMB" fill="#FF5A00"></path>
        </g>
    </g>
</svg>