<svg width="17" height="16" viewBox="0 0 17 16" fill="none" xmlns="http://www.w3.org/2000/svg">
<path fill-rule="evenodd" clip-rule="evenodd" d="M11.1006 16L5.01775 13.8698L1.06509 15.432C0.828402 15.5582 0.591716 15.5503 0.35503 15.4083C0.118343 15.2663 0 15.0454 0 14.7456V2.36686C0 2.19329 0.0512821 2.03156 0.153846 1.88166C0.25641 1.73176 0.394477 1.62525 0.568047 1.56213L5.01775 0L11.1006 2.10651L15.0296 0.568047C15.2663 0.441815 15.503 0.445759 15.7396 0.579882C15.9763 0.714004 16.0947 0.915187 16.0947 1.18343V13.7751C16.0947 13.9329 16.0394 14.075 15.929 14.2012C15.8185 14.3274 15.6844 14.4142 15.5266 14.4615L11.1006 16ZM10.4852 14.6746V2.95858L5.60947 1.30178V13.0178L10.4852 14.6746Z" fill="url(#paint0_linear_92_20651)"/>
<defs>
<linearGradient id="paint0_linear_92_20651" x1="-4.79659e-07" y1="1.91397e-07" x2="-9.91169e-08" y2="16" gradientUnits="userSpaceOnUse">
<stop stop-color="#FF9300"/>
<stop offset="0.670978" stop-color="#FF5A00"/>
<stop offset="1" stop-color="#FF5A00"/>
</linearGradient>
</defs>
</svg>
