<svg width="17" height="18" viewBox="0 0 17 18" fill="none" xmlns="http://www.w3.org/2000/svg">
<path fill-rule="evenodd" clip-rule="evenodd" d="M13.7308 18C13.0538 18 12.4808 17.7615 12.0115 17.2846C11.5423 16.8077 11.3077 16.2308 11.3077 15.5538C11.3077 15.4462 11.3192 15.3154 11.3423 15.1615C11.3654 15.0077 11.4 14.8769 11.4462 14.7692L4.24615 10.5692C4.03077 10.8308 3.76154 11.0423 3.43846 11.2038C3.11538 11.3654 2.78462 11.4462 2.44615 11.4462C1.76923 11.4462 1.19231 11.2077 0.715385 10.7308C0.238462 10.2538 0 9.67692 0 9C0 8.32308 0.238462 7.74615 0.715385 7.26923C1.19231 6.79231 1.76923 6.55385 2.44615 6.55385C2.78462 6.55385 3.11154 6.62692 3.42692 6.77308C3.74231 6.91923 4.01538 7.12308 4.24615 7.38462L11.4462 3.23077C11.4 3.10769 11.3654 2.97692 11.3423 2.83846C11.3192 2.7 11.3077 2.56923 11.3077 2.44615C11.3077 1.76923 11.5423 1.19231 12.0115 0.715385C12.4808 0.238462 13.0538 0 13.7308 0C14.4077 0 14.9846 0.238462 15.4615 0.715385C15.9385 1.19231 16.1769 1.76154 16.1769 2.42308C16.1769 3.11538 15.9385 3.69615 15.4615 4.16538C14.9846 4.63462 14.4077 4.86923 13.7308 4.86923C13.3769 4.86923 13.0423 4.80769 12.7269 4.68462C12.4115 4.56154 12.1462 4.36923 11.9308 4.10769L4.75385 8.16923C4.78462 8.29231 4.81154 8.43077 4.83462 8.58462C4.85769 8.73846 4.86923 8.87692 4.86923 9C4.86923 9.12308 4.85769 9.25 4.83462 9.38077C4.81154 9.51154 4.78462 9.63846 4.75385 9.76154L11.9308 13.8692C12.1462 13.6538 12.4038 13.4769 12.7038 13.3385C13.0038 13.2 13.3462 13.1308 13.7308 13.1308C14.4077 13.1308 14.9846 13.3654 15.4615 13.8346C15.9385 14.3038 16.1769 14.8769 16.1769 15.5538C16.1769 16.2308 15.9385 16.8077 15.4615 17.2846C14.9846 17.7615 14.4077 18 13.7308 18ZM13.7308 3.83077C14.1154 3.83077 14.4423 3.69615 14.7115 3.42692C14.9808 3.15769 15.1154 2.82308 15.1154 2.42308C15.1154 2.03846 14.9808 1.71154 14.7115 1.44231C14.4423 1.17308 14.1154 1.03846 13.7308 1.03846C13.3462 1.03846 13.0192 1.17308 12.75 1.44231C12.4808 1.71154 12.3462 2.04615 12.3462 2.44615C12.3462 2.83077 12.4808 3.15769 12.75 3.42692C13.0192 3.69615 13.3462 3.83077 13.7308 3.83077ZM2.44615 10.3846C2.83077 10.3846 3.15769 10.25 3.42692 9.98077C3.69615 9.71154 3.83077 9.38462 3.83077 9C3.83077 8.61538 3.69615 8.28846 3.42692 8.01923C3.15769 7.75 2.82308 7.61538 2.42308 7.61538C2.03846 7.61538 1.71154 7.75 1.44231 8.01923C1.17308 8.28846 1.03846 8.61538 1.03846 9C1.03846 9.38462 1.17308 9.71154 1.44231 9.98077C1.71154 10.25 2.04615 10.3846 2.44615 10.3846ZM13.7308 16.9615C14.1154 16.9615 14.4423 16.8269 14.7115 16.5577C14.9808 16.2885 15.1154 15.9538 15.1154 15.5538C15.1154 15.1692 14.9808 14.8423 14.7115 14.5731C14.4423 14.3038 14.1154 14.1692 13.7308 14.1692C13.3462 14.1692 13.0192 14.3038 12.75 14.5731C12.4808 14.8423 12.3462 15.1769 12.3462 15.5769C12.3462 15.9615 12.4808 16.2885 12.75 16.5577C13.0192 16.8269 13.3462 16.9615 13.7308 16.9615Z" fill="white" fill-opacity="0.87"/>
</svg>
