<svg width="16" height="19" viewBox="0 0 16 19" fill="none" xmlns="http://www.w3.org/2000/svg">
<path fill-rule="evenodd" clip-rule="evenodd" d="M7.07 0V3.07C3.12 3.56 0.0699997 6.92 0.0699997 11C0.0699997 15.08 3.12 18.44 7.07 18.93V16.91C4.23 16.43 2.07 13.97 2.07 11C2.07 8.03 4.23 5.57 7.07 5.09V9L11.62 4.55L7.07 0ZM14.37 6.11L12.96 7.53C13.49 8.28 13.84 9.13 13.98 10H16C15.83 8.61 15.27 7.27 14.37 6.11ZM16 12H13.98C13.84 12.88 13.49 13.72 12.97 14.47L14.38 15.89C15.28 14.73 15.83 13.39 16 12ZM12.97 17.32C11.81 18.22 10.46 18.76 9.07 18.93V16.9C9.94 16.75 10.78 16.41 11.53 15.87L12.97 17.32Z" fill="black"/>
</svg>
