<svg width="16" height="19" viewBox="0 0 16 19" fill="none" xmlns="http://www.w3.org/2000/svg">
<path fill-rule="evenodd" clip-rule="evenodd" d="M8.99982 0V3.07C12.9498 3.56 15.9998 6.92 15.9998 11C15.9998 15.08 12.9498 18.44 8.99982 18.93V16.91C11.8398 16.43 13.9998 13.97 13.9998 11C13.9998 8.03 11.8398 5.57 8.99982 5.09V9L4.44982 4.55L8.99982 0ZM1.69982 6.11L3.10982 7.53C2.57982 8.28 2.22982 9.13 2.08982 10H0.0698242C0.239824 8.61 0.799824 7.27 1.69982 6.11ZM0.0698242 12H2.08982C2.22982 12.88 2.57982 13.72 3.09982 14.47L1.68982 15.89C0.789824 14.73 0.239824 13.39 0.0698242 12ZM3.09982 17.32C4.25982 18.22 5.60982 18.76 6.99982 18.93V16.9C6.12982 16.75 5.28982 16.41 4.53982 15.87L3.09982 17.32Z" fill="black"/>
</svg>
